<svg width="99" height="16" viewBox="0 0 99 16" fill="none" xmlns="http://www.w3.org/2000/svg">
<path fill-rule="evenodd" clip-rule="evenodd" d="M70.0705 0V12.987H73.4644V0H70.0705ZM0 0.606061V12.987H3.91342V8.95238H5.10822C6.7013 8.95238 7.91919 8.60606 8.7619 7.91342C9.60462 7.20924 10.026 6.21068 10.026 4.91775V4.84849C10.026 2.0202 8.329 0.606061 4.93506 0.606061H0ZM4.72727 6.32035H3.91342V3.53247H4.74459C5.78355 3.53247 6.30303 3.97691 6.30303 4.8658V4.93507C6.30303 5.85859 5.77778 6.32035 4.72727 6.32035ZM11.7841 11.9827C12.7192 12.8023 13.9313 13.2121 15.4205 13.2121C16.8404 13.2121 17.9486 12.9293 18.7451 12.3636C19.5417 11.7864 20.0092 10.9726 20.1477 9.92208H16.9616C16.8346 10.5685 16.3613 10.8918 15.5417 10.8918C15.0568 10.8918 14.6643 10.7475 14.3642 10.4589C14.064 10.1703 13.8909 9.75469 13.8447 9.21212H20.1304V8.38095C20.1304 6.83406 19.686 5.66234 18.7971 4.8658C17.9082 4.06926 16.7826 3.671 15.4205 3.671C14.0005 3.671 12.8057 4.10967 11.836 4.98701C10.8779 5.85281 10.3988 7.00144 10.3988 8.4329V8.57143C10.3988 10.026 10.8606 11.1631 11.7841 11.9827ZM16.8404 7.42857H13.862C13.9313 6.92064 14.0987 6.53391 14.3642 6.2684C14.6412 6.00289 14.9933 5.87013 15.4205 5.87013C16.3324 5.87013 16.8057 6.38961 16.8404 7.42857ZM21.2995 12.987V3.93074H24.7108V5.76623C25.2533 4.43867 26.223 3.78644 27.6199 3.80952V6.99567C25.6805 6.89178 24.7108 7.49784 24.7108 8.81385V12.987H21.2995ZM32.6824 13.2121C34.0215 13.2121 35.0662 12.9524 35.8165 12.4329C36.5669 11.9019 36.9421 11.0996 36.9421 10.026C36.9421 9.07936 36.6477 8.40404 36.059 8C35.4702 7.58442 34.489 7.29582 33.1152 7.1342C32.6073 7.07648 32.2437 7.00144 32.0243 6.90909C31.805 6.80519 31.6953 6.64935 31.6953 6.44156C31.6953 6.02598 31.9955 5.81818 32.5958 5.81818C33.173 5.81818 33.5135 6.10101 33.6174 6.66667H36.6824C36.4976 4.66955 35.1181 3.671 32.5438 3.671C31.3663 3.671 30.3966 3.93651 29.6347 4.46753C28.8844 4.98701 28.5092 5.74315 28.5092 6.73593C28.5092 7.68254 28.7805 8.36364 29.323 8.77922C29.8656 9.19481 30.766 9.47186 32.0243 9.61039C32.6246 9.6912 33.0402 9.78932 33.2711 9.90476C33.502 10.0087 33.6174 10.1645 33.6174 10.3723C33.6174 10.7994 33.3 11.013 32.665 11.013C32.2956 11.013 32.0301 10.938 31.8685 10.7879C31.7069 10.6378 31.5972 10.4012 31.5395 10.0779H28.4226C28.4457 11.0938 28.8267 11.873 29.5655 12.4156C30.3043 12.9466 31.3432 13.2121 32.6824 13.2121ZM42.7485 10.7013C43.7875 10.7013 44.3069 9.96825 44.3069 8.50216V8.38095C44.3069 6.92641 43.7875 6.19913 42.7485 6.19913C41.6749 6.19913 41.1381 6.90909 41.1381 8.329V8.46753C41.1381 9.95671 41.6749 10.7013 42.7485 10.7013ZM42.7312 13.2121C41.2651 13.2121 40.0587 12.8023 39.1121 11.9827C38.1655 11.1515 37.6922 10.0144 37.6922 8.57143V8.4329C37.6922 6.9899 38.1655 5.84127 39.1121 4.98701C40.0703 4.12121 41.2824 3.68831 42.7485 3.68831C44.203 3.68831 45.4036 4.10967 46.3502 4.95238C47.2968 5.79509 47.7701 6.92641 47.7701 8.34632V8.48485C47.7701 9.93939 47.2911 11.0938 46.3329 11.9481C45.3863 12.7908 44.1857 13.2121 42.7312 13.2121ZM48.9645 3.93074V12.987H52.3758V7.98268C52.3758 6.93218 52.826 6.40693 53.7264 6.40693C54.4883 6.40693 54.8693 6.86869 54.8693 7.79221V12.987H58.2806V7.0303C58.2806 5.93362 58.015 5.10245 57.484 4.5368C56.9645 3.97114 56.2604 3.68831 55.3715 3.68831C53.9746 3.68831 52.9761 4.25397 52.3758 5.38528V3.93074H48.9645ZM62.4694 13.2121C61.5805 13.2121 60.8417 12.987 60.253 12.5368C59.6758 12.075 59.3872 11.3882 59.3872 10.4762C59.3872 9.43723 59.7912 8.68687 60.5993 8.22511C61.4189 7.7518 62.6368 7.51515 64.253 7.51515H65.0322V7.35931C65.0322 6.92064 64.9629 6.59163 64.8244 6.37229C64.6859 6.15296 64.403 6.04329 63.9759 6.04329C63.3294 6.04329 62.9716 6.36652 62.9023 7.01299H59.7162C59.7854 5.92785 60.2126 5.10245 60.9976 4.5368C61.7941 3.9596 62.8561 3.671 64.1837 3.671C65.5343 3.671 66.5733 3.9596 67.3006 4.5368C68.0394 5.10245 68.4088 5.96825 68.4088 7.1342V12.987H65.1188V11.9481C64.5993 12.7908 63.7162 13.2121 62.4694 13.2121ZM63.6988 10.9264C64.0913 10.9264 64.4088 10.8283 64.6512 10.632C64.9052 10.4242 65.0322 10.153 65.0322 9.81818V9.35065H64.3049C63.7277 9.35065 63.3237 9.41414 63.0928 9.54113C62.8619 9.66811 62.7465 9.89322 62.7465 10.2165C62.7465 10.6898 63.0639 10.9264 63.6988 10.9264ZM75.2619 12.987V0H78.6558V12.987H75.2619ZM83.2585 12.0866L81.7866 16H85.0247L89.8559 3.93074H86.6351L85.042 8.45022L83.3278 3.93074H79.6394L83.2585 12.0866ZM93.0839 4.6042V7.42857H93.8791V4.6042H94.8206V4H92.1425V4.6042H93.0839ZM95.3117 4V7.42857H96.019V5.02138L96.9898 7.42857H97.2483L98.2142 5.02138V7.42857H98.9996V4H97.9752L97.1703 6.13387L96.3556 4H95.3117Z" fill="#1E2834"/>
</svg>
